<svg xmlns="http://www.w3.org/2000/svg" xmlns:xlink="http://www.w3.org/1999/xlink" version="1.1" enable-background="new 0 0 1000 1000" xml:space="preserve" width="1000" height="1000"><rect id="backgroundrect" width="100%" height="100%" x="0" y="0" fill="none" stroke="none"/>
<metadata> Svg Vector Icons : http://www.onlinewebfonts.com/icon </metadata>

<g class="currentLayer" style=""><title>Layer 1</title><g id="svg_1" class="selected" transform="" fill="#ffffff" fill-opacity="1"><path d="M 53.2246 571.3 c -11.2 0 -22.4 -4.4 -30.8 -13.2 c -16.2 -17 -15.5 -43.8 1.5 -60 l 447 -424.6 c 16.3 -15.5 41.9 -15.6 58.3 -0.2 l 448.1 420.8 c 17.1 16.1 17.9 42.9 1.9 60 c -16.1 17.1 -42.9 17.9 -60 1.9 L 500.325 162.6 L 82.4246 559.6 C 74.2246 567.5 63.6246 571.3 53.2246 571.3 Z" id="svg_2" transform="" fill="#ffffff" fill-opacity="1"/><path d="M 804.225 938.2 H 197.225 c -23.4 0 -42.5 -19 -42.5 -42.5 V 611.5 c 0 -23.4 19 -42.5 42.5 -42.5 c 23.4 0 42.5 19 42.5 42.5 v 241.8 h 522 V 599.8 c 0 -23.4 19 -42.5 42.5 -42.5 c 23.4 0 42.5 19 42.5 42.5 v 296 C 846.725 919.3 827.625 938.2 804.225 938.2 Z" id="svg_3" transform="" fill="#ffffff" fill-opacity="1"/></g></g></svg>