<svg xmlns="http://www.w3.org/2000/svg" xmlns:xlink="http://www.w3.org/1999/xlink" version="1.1" width="70" height="56" style="" xml:space="preserve"><rect id="backgroundrect" width="100%" height="100%" x="0" y="0" fill="none" stroke="none"/>
















<g class="currentLayer" style=""><title>Layer 1</title><g id="svg_1" class="" fill="#ffffff" fill-opacity="1" transform="">
	<path d="M 0 48.7368 h 70.074 V 6.16479 H 0 V 48.7368 Z M 59.552 9.11979 h 8.045 v 8.047 h -1.168 v -6.879 h -6.877 V 9.11979 Z M 59.552 44.6148 h 6.877 v -6.88 h 1.168 v 8.048 h -8.045 V 44.6148 Z M 35.037 11.7128 c 8.695 0 15.734 7.05 15.734 15.738 c 0 8.688 -7.044 15.738 -15.734 15.738 c -8.692 0 -15.736 -7.051 -15.736 -15.738 C 19.301 18.7628 26.343 11.7128 35.037 11.7128 Z M 2.476 9.11979 h 8.046 v 1.168 H 3.644 v 6.879 H 2.476 V 9.11979 Z M 2.476 37.7328 h 1.168 v 6.88 h 6.878 v 1.168 H 2.476 V 37.7328 Z M 31.23 33.4698 c -0.325 -0.574 -0.523 -1.489 -0.593 -2.739 h -2.422 c 0 1.571 0.257 2.811 0.778 3.738 c 0.95 1.704 2.753 2.646 5.407 2.819 v 2.66 h 1.301 v -2.66 c 1.652 -0.183 2.916 -0.557 3.792 -1.12 c 1.581 -1.023 2.367 -2.751 2.367 -5.178 c 0 -1.682 -0.613 -2.95 -1.845 -3.808 c -0.758 -0.52 -2.194 -1.079 -4.314 -1.672 V 18.8438 c 1.258 0.047 2.176 0.528 2.753 1.451 c 0.311 0.502 0.497 1.101 0.559 1.794 h 2.397 c -0.05 -1.546 -0.554 -2.792 -1.525 -3.737 c -0.972 -0.941 -2.37 -1.474 -4.184 -1.607 v -1.79 h -1.301 v 1.82 c -1.834 0.018 -3.261 0.584 -4.279 1.7 c -1.019 1.113 -1.525 2.363 -1.525 3.746 c 0 1.551 0.471 2.771 1.416 3.642 c 0.943 0.876 2.408 1.504 4.389 1.881 v 7.458 C 32.855 35.0798 31.799 34.5008 31.23 33.4698 Z M 35.701 28.0778 c 1.137 0.31 1.953 0.635 2.436 0.985 c 0.838 0.593 1.262 1.459 1.262 2.6 c 0 0.721 -0.157 1.355 -0.468 1.902 c -0.593 1.067 -1.67 1.636 -3.23 1.709 V 28.0778 Z M 31.966 24.1898 c -0.604 -0.517 -0.905 -1.219 -0.905 -2.126 c 0 -0.745 0.255 -1.464 0.764 -2.148 c 0.515 -0.685 1.371 -1.046 2.577 -1.095 v 6.437 C 33.379 25.0528 32.565 24.6948 31.966 24.1898 Z" id="svg_2" fill="#ffffff" fill-opacity="1" transform=""/>
</g><g id="svg_3" class="">
</g><g id="svg_4" class="">
</g><g id="svg_5" class="">
</g><g id="svg_6" class="">
</g><g id="svg_7" class="">
</g><g id="svg_8" class="">
</g><g id="svg_9" class="">
</g><g id="svg_10" class="">
</g><g id="svg_11" class="">
</g><g id="svg_12" class="">
</g><g id="svg_13" class="">
</g><g id="svg_14" class="">
</g><g id="svg_15" class="">
</g><g id="svg_16" class="">
</g><g id="svg_17" class="">
</g></g></svg>