<svg xmlns="http://www.w3.org/2000/svg" xmlns:xlink="http://www.w3.org/1999/xlink" version="1.1" width="509" height="401" style="enable-background:new 0 0 511.626 511.626;" xml:space="preserve"><rect id="backgroundrect" width="100%" height="100%" x="0" y="0" fill="none" stroke="none"/>
















<g class="currentLayer" style=""><title>Layer 1</title><g id="svg_1" class="" fill="#ffffff" fill-opacity="1">
	<g id="svg_2" fill="#ffffff" fill-opacity="1">
		<path d="M48.73860977745056,125.17037913008866 c6.423579246520997,4.5328316469192504 25.78662119960785,17.995351563453674 58.09011837768555,40.380612120628356 c32.304489696502685,22.385260557174682 57.051944105148316,39.6213355255127 74.24335574436188,51.70921742343902 c1.8887625627517701,1.3250120973587038 5.901514554977417,4.205300566673279 12.040241013526916,8.644835481643678 c6.139718976974487,4.4425124702453616 11.241263681411743,8.032451613426208 15.300664039611817,10.77080994796753 c4.062377913475037,2.7373658161163332 8.973359080314637,5.808217823028564 14.737906092643739,9.207593428611755 c5.762561975479126,3.3963980503082283 11.194615315437316,5.951140476226807 16.295167501449583,7.642391872406006 c5.101544704437256,1.7051466541290283 9.823947370529174,2.5497798337936404 14.168200516700745,2.5497798337936404 h0.284852787971497 h0.2858453063964847 c4.344253146171569,0 9.068640849113464,-0.8456256980896004 14.17018555355072,-2.5497798337936404 c5.098567149162293,-1.6912513961792002 10.535583081245422,-4.248971377372741 16.29318246459961,-7.642391872406006 c5.760576938629151,-3.4033456792831425 10.671558105468751,-6.471220130920409 14.733936018943787,-9.207593428611755 c4.062377913475037,-2.738358334541321 9.15995254421234,-6.3282974777221686 15.301656558036804,-10.77080994796753 c6.1377339401245115,-4.443504988670349 10.155448524475098,-7.319823384284973 12.044211087226868,-8.644835481643678 c17.377012584686277,-12.08788189792633 61.586760788917545,-42.78746930122375 132.61534935474396,-92.09578465461732 c13.790050996780396,-9.630406277656554 25.311204874038694,-21.250811997413635 34.566439187049866,-34.853277011871334 c9.262181941986086,-13.596509903907776 13.888310320854186,-27.85999218940735 13.888310320854186,-42.78250670909881 c0,-12.47000149154663 -4.489160836219788,-23.144537152290344 -13.46351243495941,-32.02261446380616 c-8.973359080314637,-8.880062348365783 -19.60124637508392,-13.317612226486204 -31.876714255332946,-13.317612226486204 H45.337249135017395 c-14.545357518196106,0 -25.738980315208433,4.9109811668395995 -33.57888335418701,14.732943500518799 C3.919455260276796,26.745304479324176 3.3306690738754696e-16,39.024742433273154 3.3306690738754696e-16,53.758678452216934 c0,11.901288434028626 5.196826473236084,24.798072848320007 15.585516827583312,38.68241309547424 C25.973214663505555,106.32642431327041 37.027884881019595,117.2371793591612 48.73860977745056,125.17037913008866 z" id="svg_3" fill="#ffffff" fill-opacity="1"/>
		<path d="M479.45786059570315,155.48784693976577 c-61.95697016143799,41.93489597415924 -109.00234350585937,74.52523097705841 -141.11329210948944,97.7640573797226 c-10.767832392692567,7.931214734077454 -19.50298705101013,14.122544669151305 -26.211419085502623,18.55910202884674 c-6.708432034492493,4.439534914970398 -15.630180156707763,8.973359080314637 -26.778147106170653,13.59948745918274 c-11.143996875762939,4.633076007843018 -21.529709674835207,6.942666382789612 -31.166071063041688,6.942666382789612 h-0.28882286167144827 h-0.284852787971497 c-9.634376351356508,0 -20.026044260978697,-2.3095903749465942 -31.170041136741638,-6.942666382789612 c-11.143996875762939,-4.6261283788681045 -20.071700108528137,-9.15995254421234 -26.778147106170653,-13.59948745918274 c-6.704461960792542,-4.436557359695434 -15.44259417438507,-10.627887294769288 -26.20943404865265,-18.55910202884674 c-25.504745966911315,-18.701032163619995 -72.44888243198395,-51.29335220336914 -140.83439443206785,-97.7640573797226 C17.85242891025543,148.313923763954 8.312341809272766,140.09090861293015 3.3306690738754696e-16,130.835674299919 v224.98903916835786 c0,12.475956602096558 4.437549878120422,23.144537152290344 13.317612226486204,32.02360698223114 c8.878077311515808,8.88204738521576 19.55360549068451,13.321582300186158 32.02261446380616,13.321582300186158 h417.12174839591984 c12.466031417846681,0 23.140567078590394,-4.439534914970398 32.01963690853119,-13.321582300186158 c8.88204738521576,-8.88204738521576 13.317612226486204,-19.546657861709594 13.317612226486204,-32.02360698223114 V130.835674299919 C499.6744683942795,139.89935255690747 490.23164809894564,148.12236770793137 479.45786059570315,155.48784693976577 z" id="svg_4" fill="#ffffff" fill-opacity="1"/>
	</g>
</g><g id="svg_5" class="">
</g><g id="svg_6" class="">
</g><g id="svg_7" class="">
</g><g id="svg_8" class="">
</g><g id="svg_9" class="">
</g><g id="svg_10" class="">
</g><g id="svg_11" class="">
</g><g id="svg_12" class="">
</g><g id="svg_13" class="">
</g><g id="svg_14" class="">
</g><g id="svg_15" class="">
</g><g id="svg_16" class="">
</g><g id="svg_17" class="">
</g><g id="svg_18" class="">
</g><g id="svg_19" class="">
</g></g></svg>