<?xml version="1.0" encoding="utf-8"?>
<!-- Svg Vector Icons : http://www.onlinewebfonts.com/icon -->
<!DOCTYPE svg PUBLIC "-//W3C//DTD SVG 1.1//EN" "http://www.w3.org/Graphics/SVG/1.1/DTD/svg11.dtd">
<svg version="1.1" xmlns="http://www.w3.org/2000/svg" xmlns:xlink="http://www.w3.org/1999/xlink" x="0px" y="0px" viewBox="0 0 1000 1000" enable-background="new 0 0 1000 1000" xml:space="preserve">
<metadata> Svg Vector Icons : http://www.onlinewebfonts.com/icon </metadata>
<g><path d="M52.5,571.3c-11.2,0-22.4-4.4-30.8-13.2c-16.2-17-15.5-43.8,1.5-60l447-424.6c16.3-15.5,41.9-15.6,58.3-0.2l448.1,420.8c17.1,16.1,17.9,42.9,1.9,60c-16.1,17.1-42.9,17.9-60,1.9L499.6,162.6L81.7,559.6C73.5,567.5,62.9,571.3,52.5,571.3z"/><path d="M803.5,938.2H196.5c-23.4,0-42.5-19-42.5-42.5V611.5c0-23.4,19-42.5,42.5-42.5c23.4,0,42.5,19,42.5,42.5v241.8h522V599.8c0-23.4,19-42.5,42.5-42.5c23.4,0,42.5,19,42.5,42.5v296C846,919.3,826.9,938.2,803.5,938.2z"/></g>
</svg>