<?xml version="1.0" encoding="iso-8859-1"?>
<!-- Generator: Adobe Illustrator 19.0.0, SVG Export Plug-In . SVG Version: 6.00 Build 0)  -->
<svg version="1.1" id="Layer_1" xmlns="http://www.w3.org/2000/svg" xmlns:xlink="http://www.w3.org/1999/xlink" x="0px" y="0px"
	 viewBox="0 0 512 512" style="enable-background:new 0 0 512 512;" xml:space="preserve">
<path style="fill:#57A4FF;" d="M230.077,269.13c0,11.882,5.686,17.534,18.202,22.84v-42.543
	C230.077,253.176,230.077,264.976,230.077,269.13z"/>
<path style="fill:#FFFFFF;" d="M255.998,204.077l-0.003,0.002c-0.594,0.182-1.167,0.405-1.718,0.666
	c-0.002,0.002-0.003,0.002-0.006,0.003c-0.532,0.253-1.038,0.545-1.519,0.864c-0.04,0.026-0.081,0.054-0.119,0.082
	c-0.931,0.635-1.755,1.389-2.451,2.237c-0.05,0.059-0.099,0.119-0.149,0.18c-0.327,0.416-0.625,0.852-0.887,1.308
	c-0.033,0.056-0.059,0.115-0.092,0.171c-0.233,0.424-0.434,0.864-0.61,1.316c-0.028,0.071-0.057,0.14-0.085,0.213
	c-0.169,0.479-0.299,0.976-0.4,1.483c-0.022,0.109-0.036,0.219-0.054,0.329c-0.084,0.523-0.141,1.055-0.141,1.6v6.999
	c-29.345,3.91-46.029,21.568-46.029,49.116c0,34.597,24.869,44.705,46.029,52.201v62.526c-14.645-1.921-21.411-8.958-26.076-13.812
	c-3.188-3.316-6.197-6.447-10.71-6.447c-7.64,0-13.793,8.513-13.793,15.56c0,12.667,19.504,30.872,50.579,33.258v7.942
	c0,0.545,0.057,1.074,0.141,1.596c0.019,0.109,0.033,0.219,0.054,0.326c0.099,0.506,0.23,1.002,0.4,1.482
	c0.028,0.071,0.057,0.14,0.085,0.211c0.174,0.453,0.375,0.892,0.611,1.316c0.031,0.056,0.056,0.113,0.09,0.168
	c0.262,0.456,0.56,0.892,0.887,1.306c0.048,0.061,0.098,0.119,0.147,0.178c0.697,0.847,1.52,1.601,2.453,2.236
	c0.039,0.026,0.079,0.056,0.119,0.082c0.483,0.32,0.987,0.61,1.519,0.863c0.003,0.002,0.006,0.003,0.009,0.005
	c0.549,0.261,1.125,0.484,1.718,0.666L255.998,204.077L255.998,204.077z M248.28,291.97c-12.516-5.305-18.202-10.958-18.202-22.84
	c0-4.155,0-15.954,18.202-19.703V291.97z"/>
<path style="fill:#9BC9FF;" d="M286.216,359.171c0-13.917-5.443-21.254-15.155-26.816v51.253
	C281.243,379.854,286.216,371.8,286.216,359.171z"/>
<path style="fill:#FFFFFF;" d="M255.998,432.303c0.562,0.172,1.143,0.301,1.739,0.396c0.084,0.014,0.169,0.025,0.254,0.036
	c0.588,0.082,1.185,0.137,1.797,0.137c5.688,0,12.024-4.518,12.024-11.002v-9.385c27.415-5.59,43.002-25.311,43.002-54.837
	c0-38.412-26.038-50.831-43.002-57.2V248.97c7.368,1.264,12.252,3.755,16.036,5.683c3.125,1.592,5.821,2.968,8.865,2.968
	c8.392,0,13.545-9.069,13.545-15.569c0-12.964-21.201-19.433-38.447-21.194v-6.333c0-6.495-6.336-11.019-12.024-11.019
	c-0.613,0-1.212,0.054-1.798,0.137c-0.084,0.011-0.168,0.022-0.253,0.036c-0.594,0.095-1.176,0.225-1.738,0.397h-0.002
	L255.998,432.303L255.998,432.303z M271.061,332.355c9.712,5.562,15.155,12.899,15.155,26.816c0,12.629-4.973,20.683-15.155,24.435
	V332.355z"/>
<path style="fill:#57A4FF;" d="M139.636,170.667v131.879c0,12.853-10.42,23.273-23.273,23.273c-38.498,0-69.818,31.32-69.818,69.818
	s31.32,69.818,69.818,69.818h139.635v-33.151c-0.596-0.182-1.17-0.403-1.718-0.666c-0.003-0.002-0.006-0.002-0.009-0.005
	c-0.534-0.251-1.038-0.543-1.519-0.863c-0.04-0.026-0.081-0.054-0.119-0.082c-0.931-0.635-1.756-1.387-2.453-2.236
	c-0.05-0.061-0.098-0.118-0.147-0.178c-0.327-0.416-0.627-0.85-0.887-1.306c-0.033-0.056-0.059-0.113-0.09-0.168
	c-0.233-0.424-0.438-0.863-0.611-1.316c-0.028-0.071-0.057-0.14-0.085-0.211c-0.169-0.479-0.301-0.974-0.4-1.482
	c-0.022-0.109-0.036-0.217-0.054-0.326c-0.084-0.523-0.141-1.053-0.141-1.596v-7.942c-31.074-2.385-50.579-20.59-50.579-33.258
	c0-7.049,6.153-15.56,13.793-15.56c4.513,0,7.523,3.131,10.71,6.447c4.665,4.852,11.432,11.891,26.076,13.812v-62.526
	c-21.16-7.494-46.029-17.602-46.029-52.201c0-27.549,16.683-45.206,46.029-49.116v-6.999c0-0.545,0.057-1.075,0.141-1.6
	c0.019-0.11,0.033-0.219,0.054-0.329c0.099-0.507,0.23-1.002,0.4-1.483c0.028-0.071,0.057-0.141,0.085-0.213
	c0.172-0.453,0.375-0.892,0.61-1.316c0.031-0.056,0.057-0.115,0.092-0.171c0.262-0.456,0.56-0.892,0.887-1.308
	c0.048-0.062,0.098-0.121,0.149-0.18c0.695-0.85,1.522-1.603,2.451-2.237c0.039-0.028,0.079-0.056,0.119-0.082
	c0.483-0.32,0.987-0.611,1.519-0.864c0.003-0.002,0.005-0.002,0.006-0.003c0.551-0.262,1.125-0.484,1.718-0.666l0.003-0.002v-79.951
	H139.636v23.273V170.667z"/>
<g>
	<path style="fill:#3D6DEB;" d="M248.444,210.905c0.174-0.453,0.375-0.892,0.61-1.316
		C248.82,210.013,248.616,210.452,248.444,210.905z"/>
	<path style="fill:#3D6DEB;" d="M248.359,425.275c-0.169-0.479-0.299-0.974-0.4-1.482
		C248.058,424.301,248.19,424.796,248.359,425.275z"/>
	<path style="fill:#3D6DEB;" d="M254.278,204.744c0.551-0.261,1.125-0.484,1.718-0.666
		C255.401,204.26,254.829,204.482,254.278,204.744z"/>
	<path style="fill:#3D6DEB;" d="M252.751,205.611c0.483-0.32,0.988-0.611,1.519-0.864C253.738,205,253.234,205.29,252.751,205.611z"
		/>
	<path style="fill:#3D6DEB;" d="M254.281,431.639c0.549,0.261,1.123,0.484,1.718,0.666l0,0
		C255.404,432.123,254.829,431.9,254.281,431.639z"/>
	<path style="fill:#3D6DEB;" d="M250.179,428.456c0.697,0.849,1.524,1.601,2.453,2.236
		C251.701,430.057,250.875,429.304,250.179,428.456z"/>
	<path style="fill:#3D6DEB;" d="M252.632,205.694c-0.931,0.635-1.756,1.389-2.451,2.237
		C250.877,207.082,251.702,206.327,252.632,205.694z"/>
	<path style="fill:#3D6DEB;" d="M249.144,209.419c0.262-0.456,0.56-0.892,0.887-1.308
		C249.704,208.527,249.406,208.963,249.144,209.419z"/>
	<path style="fill:#3D6DEB;" d="M247.958,212.599c0.099-0.506,0.23-1.002,0.4-1.483C248.19,211.597,248.058,212.094,247.958,212.599
		z"/>
	<path style="fill:#3D6DEB;" d="M247.763,214.528c0-0.545,0.057-1.075,0.141-1.6C247.822,213.451,247.763,213.983,247.763,214.528z"
		/>
	<path style="fill:#3D6DEB;" d="M249.054,426.802c-0.234-0.424-0.436-0.863-0.611-1.316
		C248.616,425.939,248.821,426.38,249.054,426.802z"/>
	<path style="fill:#3D6DEB;" d="M250.031,428.277c-0.327-0.416-0.625-0.85-0.887-1.306
		C249.404,427.427,249.704,427.861,250.031,428.277z"/>
	<path style="fill:#3D6DEB;" d="M247.904,423.469c-0.084-0.523-0.141-1.053-0.141-1.596
		C247.763,422.416,247.822,422.946,247.904,423.469z"/>
	<path style="fill:#3D6DEB;" d="M254.272,431.635c-0.534-0.251-1.038-0.543-1.519-0.863
		C253.234,431.093,253.738,431.383,254.272,431.635z"/>
</g>
<path style="fill:#9BC9FF;" d="M256,204.077c0.562-0.172,1.142-0.303,1.738-0.397c0.085-0.014,0.168-0.023,0.253-0.036
	c0.59-0.082,1.187-0.137,1.798-0.137c5.688,0,12.024,4.526,12.024,11.019v6.333c17.245,1.761,38.447,8.229,38.447,21.194
	c0,6.501-5.153,15.569-13.545,15.569c-3.044,0-5.741-1.376-8.865-2.968c-3.784-1.929-8.668-4.419-16.036-5.683v51.478
	c16.964,6.369,43.002,18.786,43.002,57.2c0,29.525-15.587,49.247-43.002,54.837v9.385c0,6.484-6.336,11.002-12.024,11.002
	c-0.613,0-1.209-0.056-1.797-0.137c-0.085-0.012-0.169-0.022-0.254-0.036c-0.597-0.095-1.178-0.225-1.739-0.396v33.15h139.638
	c38.499,0,69.818-31.32,69.818-69.818s-31.319-69.818-69.818-69.818c-12.853,0-23.273-10.42-23.273-23.273V170.667v-23.273v-23.273
	H255.998v79.956H256z"/>
<g>
	<path style="fill:#5082F6;" d="M257.991,203.644c0.586-0.084,1.187-0.137,1.798-0.137
		C259.177,203.508,258.58,203.563,257.991,203.644z"/>
	<path style="fill:#5082F6;" d="M259.789,432.873c-0.613,0-1.209-0.054-1.797-0.137C258.58,432.817,259.177,432.873,259.789,432.873
		z"/>
	<path style="fill:#5082F6;" d="M256,204.077c0.562-0.172,1.143-0.301,1.738-0.397C257.142,203.774,256.562,203.905,256,204.077z"/>
	<path style="fill:#5082F6;" d="M255.998,432.303L255.998,432.303c0.562,0.172,1.142,0.303,1.739,0.396
		C257.142,432.604,256.56,432.475,255.998,432.303z"/>
</g>
<path style="fill:#3D6DEB;" d="M116.364,465.455c-38.498,0-69.818-31.32-69.818-69.818s31.32-69.818,69.818-69.818
	c12.853,0,23.273-10.42,23.273-23.273V170.667v-23.273v-23.273V23.273C139.636,10.42,129.216,0,116.364,0
	C52.201,0,0,52.201,0,116.364v279.273C0,459.799,52.201,512,116.364,512h139.635v-46.545H116.364z"/>
<path style="fill:#5286FA;" d="M395.636,0c-12.853,0-23.273,10.42-23.273,23.273v100.848v23.273v23.273v131.879
	c0,12.853,10.42,23.273,23.273,23.273c38.499,0,69.818,31.32,69.818,69.818s-31.319,69.818-69.818,69.818H255.998V512h139.638
	C459.799,512,512,459.799,512,395.636V116.364C512,52.201,459.799,0,395.636,0z"/>
<g>
</g>
<g>
</g>
<g>
</g>
<g>
</g>
<g>
</g>
<g>
</g>
<g>
</g>
<g>
</g>
<g>
</g>
<g>
</g>
<g>
</g>
<g>
</g>
<g>
</g>
<g>
</g>
<g>
</g>
</svg>
